<?xml version="1.0" encoding="UTF-8"?><svg id="Layer_1" xmlns="http://www.w3.org/2000/svg" xmlns:xlink="http://www.w3.org/1999/xlink" viewBox="0 0 136.15 137.12"><defs><radialGradient id="radial-gradient" cx="68.08" cy="1019.53" fx="68.08" fy="1019.53" r="68.06" gradientTransform="translate(0 -950.47)" gradientUnits="userSpaceOnUse"><stop offset="0" stop-color="#fff" stop-opacity=".1"/><stop offset="1" stop-color="#fff" stop-opacity="0"/></radialGradient><radialGradient id="radial-gradient-2" cy="1018.53" fy="1018.53" xlink:href="#radial-gradient"/></defs><path d="m27.76,109.35l-23.28-23.28c-2.76-2.84-4.48-6.84-4.48-10.75,0-1.81,1.02-4.64,1.79-6.27L23.28,24.28l4.48,85.07Z" style="fill:#01579b;"/><path d="m107.46,28.76l-23.28-23.28c-2.03-2.04-6.27-4.48-9.85-4.48-3.08,0-6.1.62-8.06,1.79L23.29,24.28l84.17,4.48Z" style="fill:#40c4ff;"/><polygon points="55.52 137.11 111.94 137.11 111.94 112.93 69.85 99.5 31.35 112.93 55.52 137.11" style="fill:#40c4ff;"/><path d="m23.29,96.82c0,7.18.9,8.95,4.48,12.54l3.58,3.58h80.59l-39.4-44.77L23.29,24.29v72.53Z" style="fill:#29b6f6;"/><path d="m94.92,24.28H23.28l88.65,88.65h24.18v-55.52l-28.65-28.65c-4.02-4.04-7.6-4.48-12.54-4.48Z" style="fill:#01579b;"/><path d="m28.66,110.25c-3.58-3.6-4.48-7.14-4.48-13.43V25.18l-.9-.9v72.53c0,6.3,0,8.04,5.38,13.44l2.69,2.69h0l-2.69-2.69Z" style="fill:#fff; isolation:isolate; opacity:.2;"/><polygon points="135.22 56.52 135.22 112.04 111.04 112.04 111.94 112.93 136.12 112.93 136.12 57.42 135.22 56.52" style="fill:#263238; isolation:isolate; opacity:.2;"/><path d="m107.46,28.76c-4.44-4.44-8.08-4.48-13.43-4.48H23.29l.9.9h69.85c2.66,0,9.41-.45,13.42,3.58h0Z" style="fill:#fff; isolation:isolate; opacity:.2;"/><path d="m135.22,56.52l-27.76-27.76-23.28-23.28c-2.03-2.04-6.27-4.48-9.85-4.48-3.08,0-6.1.62-8.06,1.79L23.29,24.28,1.8,69.05c-.77,1.63-1.79,4.46-1.79,6.27,0,3.91,1.72,7.91,4.48,10.75l21.46,21.3c.51.63,1.11,1.27,1.83,1.98l.9.9,2.69,2.69,23.28,23.28.9.9h56.42v-24.18h24.18v-55.52l-.93-.9Z" style="fill:url(#radial-gradient); isolation:isolate; opacity:.2;"/><path d="m27.76,108.35l-23.28-23.28c-2.76-2.84-4.48-6.84-4.48-10.75,0-1.81,1.02-4.64,1.79-6.27L23.28,23.28l4.48,85.07Z" style="fill:#01579b;"/><path d="m107.46,27.76l-23.28-23.28c-2.03-2.04-6.27-4.48-9.85-4.48-3.08,0-6.1.62-8.06,1.79L23.29,23.28l84.17,4.48Z" style="fill:#40c4ff;"/><polygon points="55.52 136.11 111.94 136.11 111.94 111.93 69.85 98.5 31.35 111.93 55.52 136.11" style="fill:#40c4ff;"/><path d="m23.29,95.82c0,7.18.9,8.95,4.48,12.54l3.58,3.58h80.59l-39.4-44.77L23.29,23.29v72.53Z" style="fill:#29b6f6;"/><path d="m94.92,23.28H23.28l88.65,88.65h24.18v-55.52l-28.65-28.65c-4.02-4.04-7.6-4.48-12.54-4.48Z" style="fill:#01579b;"/><path d="m28.66,109.25c-3.58-3.6-4.48-7.14-4.48-13.43V24.18l-.9-.9v72.53c0,6.3,0,8.04,5.38,13.44l2.69,2.69h0l-2.69-2.69Z" style="fill:#fff; isolation:isolate; opacity:.2;"/><polygon points="135.22 55.52 135.22 111.04 111.04 111.04 111.94 111.93 136.12 111.93 136.12 56.42 135.22 55.52" style="fill:#263238; isolation:isolate; opacity:.2;"/><path d="m107.46,27.76c-4.44-4.44-8.08-4.48-13.43-4.48H23.29l.9.9h69.85c2.66,0,9.41-.45,13.42,3.58h0Z" style="fill:#fff; isolation:isolate; opacity:.2;"/><path d="m135.22,55.52l-27.76-27.76-23.28-23.28c-2.03-2.04-6.27-4.48-9.85-4.48-3.08,0-6.1.62-8.06,1.79L23.29,23.28,1.8,68.05c-.77,1.63-1.79,4.46-1.79,6.27,0,3.91,1.72,7.91,4.48,10.75l21.46,21.3c.51.63,1.11,1.27,1.83,1.98l.9.9,2.69,2.69,23.28,23.28.9.9h56.42v-24.18h24.18v-55.52l-.93-.9Z" style="fill:url(#radial-gradient-2); isolation:isolate; opacity:.2;"/><path d="m27.76,109.35l-23.28-23.28c-2.76-2.84-4.48-6.84-4.48-10.75,0-1.81,1.02-4.64,1.79-6.27L23.28,24.28l4.48,85.07Z" style="fill:#01579b;"/><path d="m107.46,28.76l-23.28-23.28c-2.03-2.04-6.27-4.48-9.85-4.48-3.08,0-6.1.62-8.06,1.79L23.29,24.28l84.17,4.48Z" style="fill:#40c4ff;"/><polygon points="55.52 137.11 111.94 137.11 111.94 112.93 69.85 99.5 31.35 112.93 55.52 137.11" style="fill:#40c4ff;"/><path d="m23.29,96.82c0,7.18.9,8.95,4.48,12.54l3.58,3.58h80.59l-39.4-44.77L23.29,24.29v72.53Z" style="fill:#29b6f6;"/><path d="m94.92,24.28H23.28l88.65,88.65h24.18v-55.52l-28.65-28.65c-4.02-4.04-7.6-4.48-12.54-4.48Z" style="fill:#01579b;"/><path d="m28.66,110.25c-3.58-3.6-4.48-7.14-4.48-13.43V25.18l-.9-.9v72.53c0,6.3,0,8.04,5.38,13.44l2.69,2.69h0l-2.69-2.69Z" style="fill:#fff; isolation:isolate; opacity:.2;"/><polygon points="135.22 56.52 135.22 112.04 111.04 112.04 111.94 112.93 136.12 112.93 136.12 57.42 135.22 56.52" style="fill:#263238; isolation:isolate; opacity:.2;"/><path d="m107.46,28.76c-4.44-4.44-8.08-4.48-13.43-4.48H23.29l.9.9h69.85c2.66,0,9.41-.45,13.42,3.58h0Z" style="fill:#fff; isolation:isolate; opacity:.2;"/><path d="m135.22,56.52l-27.76-27.76-23.28-23.28c-2.03-2.04-6.27-4.48-9.85-4.48-3.08,0-6.1.62-8.06,1.79L23.29,24.28,1.8,69.05c-.77,1.63-1.79,4.46-1.79,6.27,0,3.91,1.72,7.91,4.48,10.75l21.46,21.3c.51.63,1.11,1.27,1.83,1.98l.9.9,2.69,2.69,23.28,23.28.9.9h56.42v-24.18h24.18v-55.52l-.93-.9Z" style="fill:url(#radial-gradient); isolation:isolate; opacity:.2;"/></svg>