<?xml version="1.0" encoding="UTF-8"?><svg id="svg2" xmlns="http://www.w3.org/2000/svg" xmlns:xlink="http://www.w3.org/1999/xlink" viewBox="0 0 92.07 93.09"><defs><linearGradient id="linear-gradient" x1="732.63" y1="-303.51" x2="822.92" y2="-381.2" gradientTransform="translate(-414.39 -169.73) scale(.56 -.57)" gradientUnits="userSpaceOnUse"><stop offset="0" stop-color="#5a9fd4"/><stop offset="1" stop-color="#306998"/></linearGradient><linearGradient id="linear-gradient-2" x1="857.83" y1="-428.21" x2="825.58" y2="-382.6" gradientTransform="translate(-414.39 -169.73) scale(.56 -.57)" gradientUnits="userSpaceOnUse"><stop offset="0" stop-color="#ffd43b"/><stop offset="1" stop-color="#ffe873"/></linearGradient></defs><path id="path1948" d="m45.49,0c-3.8.02-7.42.34-10.61.91-9.4,1.66-11.1,5.14-11.1,11.54v8.46h22.21v2.82H15.44c-6.45,0-12.11,3.88-13.87,11.26-2.04,8.46-2.13,13.74,0,22.57,1.58,6.57,5.35,11.26,11.8,11.26h7.64v-10.15c0-7.33,6.34-13.8,13.87-13.8h22.18c6.17,0,11.1-5.08,11.1-11.29V12.45c0-6.02-5.08-10.54-11.1-11.54C53.24.27,49.28-.02,45.49,0Zm-12.01,6.81c2.29,0,4.17,1.9,4.17,4.24,0,2.33-1.87,4.22-4.17,4.22-2.3,0-4.17-1.89-4.17-4.22s1.87-4.24,4.17-4.24Z" style="fill:url(#linear-gradient);"/><path id="path1950" d="m70.93,23.74v9.86c0,7.65-6.48,14.08-13.87,14.08h-22.18c-6.08,0-11.1,5.2-11.1,11.29v21.15c0,6.02,5.23,9.56,11.1,11.29,7.03,2.07,13.77,2.44,22.18,0,5.59-1.62,11.1-4.88,11.1-11.29v-8.46h-22.18v-2.82h33.29c6.45,0,8.86-4.5,11.1-11.26,2.32-6.96,2.22-13.65,0-22.57-1.6-6.43-4.64-11.26-11.1-11.26h-8.33Zm-12.48,53.55c2.3,0,4.17,1.89,4.17,4.22s-1.87,4.24-4.17,4.24-4.17-1.9-4.17-4.24,1.87-4.22,4.17-4.22Z" style="fill:url(#linear-gradient-2);"/></svg>